<?xml version="1.0" encoding="UTF-8"?>
<svg xmlns="http://www.w3.org/2000/svg" xmlns:xlink="http://www.w3.org/1999/xlink" width="1920" height="1080" viewBox="0 0 1920 1080">
<defs>
<g>
<g id="glyph-0-0">
<path d="M 4.765625 0.0195312 C 6.007812 -0.570312 7.128906 -1.253906 8.132812 -2.023438 C 7.769531 -3.175781 7.535156 -4.566406 7.429688 -6.203125 L 4.035156 -6.203125 L 4.035156 -4.050781 C 4.894531 -4.203125 5.785156 -4.363281 6.707031 -4.539062 C 6.722656 -4.148438 6.734375 -3.804688 6.746094 -3.507812 C 5.832031 -3.335938 4.929688 -3.160156 4.035156 -2.988281 L 4.035156 0.0703125 C 4.035156 1.0625 3.5625 1.558594 2.617188 1.570312 C 2.035156 1.578125 1.453125 1.566406 0.871094 1.53125 C 0.828125 1.140625 0.753906 0.769531 0.652344 0.421875 C 1.285156 0.511719 1.851562 0.554688 2.355469 0.554688 C 2.765625 0.5625 2.96875 0.355469 2.96875 -0.0703125 L 2.96875 -2.78125 C 2.109375 -2.609375 1.257812 -2.441406 0.417969 -2.273438 L 0.15625 -3.390625 C 1.054688 -3.535156 1.992188 -3.691406 2.96875 -3.859375 L 2.96875 -6.203125 L 0.167969 -6.203125 L 0.167969 -7.167969 L 2.96875 -7.167969 L 2.96875 -9.132812 C 2.28125 -9.042969 1.546875 -8.953125 0.753906 -8.859375 C 0.695312 -9.191406 0.597656 -9.539062 0.46875 -9.902344 C 2.605469 -10.101562 4.441406 -10.363281 5.976562 -10.683594 L 6.289062 -9.640625 C 5.632812 -9.523438 4.882812 -9.402344 4.035156 -9.277344 L 4.035156 -7.167969 L 7.371094 -7.167969 C 7.308594 -8.230469 7.242188 -9.515625 7.175781 -11.023438 L 8.269531 -11.023438 C 8.296875 -9.632812 8.34375 -8.347656 8.40625 -7.167969 L 13.164062 -7.167969 L 13.164062 -6.203125 L 8.464844 -6.203125 C 8.5625 -4.863281 8.742188 -3.707031 8.996094 -2.742188 C 9.957031 -3.589844 10.785156 -4.539062 11.484375 -5.578125 L 12.421875 -4.953125 C 11.515625 -3.726562 10.492188 -2.632812 9.347656 -1.679688 C 9.59375 -1.0625 9.882812 -0.558594 10.222656 -0.164062 C 10.664062 0.359375 11.050781 0.617188 11.378906 0.617188 C 11.5625 0.617188 11.691406 0.476562 11.769531 0.1875 C 11.890625 -0.261719 12.019531 -0.996094 12.148438 -2.011719 C 12.511719 -1.847656 12.847656 -1.722656 13.152344 -1.632812 C 12.996094 -0.660156 12.839844 0.09375 12.683594 0.632812 C 12.484375 1.324219 12.058594 1.675781 11.40625 1.6875 C 10.660156 1.675781 9.953125 1.230469 9.285156 0.34375 C 8.988281 -0.0429688 8.726562 -0.496094 8.503906 -1.015625 C 7.550781 -0.3125 6.527344 0.304688 5.429688 0.839844 C 5.203125 0.5 4.984375 0.226562 4.765625 0.0195312 M 9.308594 -9.863281 L 9.988281 -10.554688 C 10.75 -9.972656 11.53125 -9.324219 12.332031 -8.613281 L 11.535156 -7.804688 C 10.824219 -8.527344 10.082031 -9.210938 9.308594 -9.863281 Z "/>
</g>
</g>
</defs>
<g fill="rgb(98.823529%, 38.431373%, 33.333333%)" fill-opacity="1">
<use xlink:href="#glyph-0-0" x="30" y="34.107422"/>
</g>
</svg>
