<?xml version="1.0" encoding="UTF-8"?>
<svg xmlns="http://www.w3.org/2000/svg" xmlns:xlink="http://www.w3.org/1999/xlink" width="1920" height="1080" viewBox="0 0 1920 1080">
<defs>
<g>
<g id="glyph-0-0">
<path d="M 0.390625 -5.839844 L 12.996094 -5.839844 L 12.996094 -4.902344 L 10.988281 -4.902344 L 10.988281 0.046875 C 10.988281 1.128906 10.40625 1.671875 9.246094 1.671875 C 8.757812 1.671875 8.132812 1.664062 7.371094 1.648438 C 7.328125 1.335938 7.257812 0.984375 7.160156 0.59375 C 7.796875 0.652344 8.375 0.6875 8.90625 0.695312 C 9.636719 0.722656 10 0.4375 10 -0.164062 L 10 -4.902344 L 0.390625 -4.902344 L 0.390625 -5.839844 M 1.925781 -3.769531 L 7.460938 -3.769531 L 7.460938 -0.175781 L 2.890625 -0.175781 L 2.890625 0.398438 L 1.925781 0.398438 L 1.925781 -3.769531 M 0.9375 -7.050781 C 3.375 -7.335938 4.957031 -7.902344 5.675781 -8.742188 L 1.183594 -8.742188 L 1.183594 -9.679688 L 6.171875 -9.679688 C 6.285156 -10.054688 6.34375 -10.496094 6.355469 -11.007812 L 7.332031 -11.007812 C 7.320312 -10.496094 7.273438 -10.054688 7.1875 -9.679688 L 12.277344 -9.679688 L 12.277344 -8.742188 L 6.847656 -8.742188 C 6.8125 -8.683594 6.761719 -8.601562 6.691406 -8.496094 C 8.4375 -8.011719 10.121094 -7.507812 11.746094 -6.984375 L 11.289062 -6.046875 C 9.519531 -6.714844 7.769531 -7.292969 6.042969 -7.78125 C 5.121094 -7.007812 3.605469 -6.449219 1.496094 -6.101562 C 1.339844 -6.429688 1.15625 -6.746094 0.9375 -7.050781 M 6.496094 -1.085938 L 6.496094 -2.859375 L 2.890625 -2.859375 L 2.890625 -1.085938 Z "/>
</g>
<g id="glyph-0-1">
<path d="M 11.316406 1.699219 L 11.316406 1.074219 L 0.976562 1.074219 L 0.976562 -7.753906 L 2.019531 -7.753906 L 2.019531 0.109375 L 11.316406 0.109375 L 11.316406 -7.753906 L 12.355469 -7.753906 L 12.355469 1.699219 L 11.316406 1.699219 M 6.394531 -7.820312 L 9.480469 -9.460938 L 2.109375 -9.460938 L 2.109375 -10.410156 L 11.027344 -10.410156 L 11.027344 -9.328125 L 7.382812 -7.3125 L 7.382812 -2.179688 C 7.382812 -1.097656 6.847656 -0.554688 5.78125 -0.554688 C 5.347656 -0.554688 4.804688 -0.5625 4.152344 -0.578125 C 4.128906 -0.875 4.074219 -1.226562 3.996094 -1.632812 C 4.554688 -1.566406 5.078125 -1.53125 5.574219 -1.53125 C 6.121094 -1.53125 6.394531 -1.789062 6.394531 -2.3125 L 6.394531 -7.820312 M 5.585938 -4.941406 L 6.121094 -4.121094 C 5.050781 -3.511719 3.914062 -2.84375 2.707031 -2.117188 L 2.121094 -3.015625 C 3.199219 -3.535156 4.351562 -4.175781 5.585938 -4.941406 M 7.578125 -4.160156 L 8.203125 -4.914062 C 9.167969 -4.316406 10.164062 -3.65625 11.199219 -2.9375 L 10.496094 -2.0625 C 9.539062 -2.808594 8.566406 -3.507812 7.578125 -4.160156 M 2.539062 -7.257812 L 3.175781 -7.960938 C 4.046875 -7.363281 4.882812 -6.746094 5.691406 -6.113281 L 4.988281 -5.304688 C 4.144531 -6.027344 3.328125 -6.675781 2.539062 -7.257812 M 10.195312 -7.820312 L 10.949219 -7.117188 C 10.265625 -6.535156 9.496094 -5.914062 8.644531 -5.253906 L 7.96875 -5.996094 C 8.734375 -6.558594 9.476562 -7.167969 10.195312 -7.820312 Z "/>
</g>
<g id="glyph-0-2">
<path d="M 8.699219 -11.046875 L 9.738281 -10.890625 C 9.558594 -10.050781 9.34375 -9.265625 9.101562 -8.535156 L 13.085938 -8.535156 L 13.085938 -7.648438 L 12.265625 -7.648438 C 12.046875 -5.097656 11.492188 -3.070312 10.597656 -1.570312 C 11.300781 -0.613281 12.195312 0.167969 13.28125 0.773438 C 13.003906 1.15625 12.769531 1.5 12.578125 1.804688 C 11.519531 1.117188 10.636719 0.300781 9.933594 -0.644531 C 9.136719 0.34375 8.1875 1.203125 7.082031 1.933594 C 6.890625 1.683594 6.644531 1.410156 6.339844 1.113281 C 7.554688 0.316406 8.542969 -0.59375 9.296875 -1.609375 C 8.59375 -2.824219 8.128906 -4.226562 7.902344 -5.8125 C 7.722656 -5.492188 7.53125 -5.191406 7.332031 -4.914062 C 7.15625 -5.167969 6.941406 -5.445312 6.679688 -5.75 C 7.6875 -7.199219 8.359375 -8.964844 8.699219 -11.046875 M 0.3125 -3.535156 L 2.292969 -3.535156 C 2.484375 -3.863281 2.667969 -4.203125 2.851562 -4.550781 L 3.789062 -4.25 C 3.648438 -4.007812 3.511719 -3.769531 3.371094 -3.535156 L 6.5625 -3.535156 L 6.5625 -2.6875 C 6.234375 -1.839844 5.734375 -1.089844 5.066406 -0.449219 C 5.542969 -0.222656 6.027344 0.00390625 6.523438 0.226562 L 5.949219 1.125 C 5.414062 0.824219 4.851562 0.519531 4.269531 0.214844 C 3.289062 0.917969 2.054688 1.472656 0.558594 1.882812 C 0.421875 1.605469 0.273438 1.300781 0.117188 0.96875 C 1.382812 0.683594 2.457031 0.269531 3.332031 -0.265625 C 2.585938 -0.648438 1.804688 -1.039062 0.988281 -1.4375 C 1.265625 -1.839844 1.535156 -2.25 1.796875 -2.675781 L 0.3125 -2.675781 L 0.3125 -3.535156 M 0.457031 -8.015625 L 3.449219 -8.015625 L 3.449219 -10.929688 L 4.414062 -10.929688 L 4.414062 -8.015625 L 6.914062 -8.015625 L 6.914062 -7.15625 L 4.414062 -7.15625 L 4.414062 -6.359375 L 4.804688 -6.804688 C 5.613281 -6.214844 6.289062 -5.691406 6.835938 -5.242188 L 6.210938 -4.511719 C 5.734375 -4.964844 5.132812 -5.472656 4.414062 -6.035156 L 4.414062 -4.550781 L 3.449219 -4.550781 L 3.449219 -6.375 C 2.660156 -5.550781 1.742188 -4.824219 0.691406 -4.199219 C 0.523438 -4.449219 0.339844 -4.714844 0.128906 -4.992188 C 1.222656 -5.582031 2.226562 -6.304688 3.136719 -7.15625 L 0.457031 -7.15625 L 0.457031 -8.015625 M 11.222656 -7.648438 L 8.789062 -7.648438 C 8.746094 -7.535156 8.699219 -7.429688 8.644531 -7.324219 C 8.800781 -5.484375 9.234375 -3.910156 9.949219 -2.597656 C 10.640625 -3.863281 11.066406 -5.550781 11.222656 -7.648438 M 2.265625 -1.738281 C 2.882812 -1.460938 3.515625 -1.167969 4.167969 -0.867188 C 4.765625 -1.378906 5.234375 -1.980469 5.574219 -2.675781 L 2.863281 -2.675781 C 2.664062 -2.355469 2.464844 -2.042969 2.265625 -1.738281 M 6.328125 -10.605469 L 7.136719 -10.070312 C 6.65625 -9.445312 6.179688 -8.871094 5.703125 -8.339844 C 5.503906 -8.511719 5.269531 -8.695312 5 -8.886719 C 5.453125 -9.417969 5.894531 -9.988281 6.328125 -10.605469 M 0.792969 -10.03125 L 1.535156 -10.539062 C 1.925781 -10.0625 2.332031 -9.550781 2.746094 -9.003906 L 1.941406 -8.429688 C 1.558594 -8.996094 1.175781 -9.527344 0.792969 -10.03125 Z "/>
</g>
<g id="glyph-0-3">
</g>
<g id="glyph-0-4">
<path d="M 3.191406 2.292969 C 1.726562 0.625 0.996094 -1.421875 0.996094 -3.847656 C 0.996094 -6.273438 1.726562 -8.351562 3.191406 -10.085938 L 4.316406 -10.085938 C 2.847656 -8.285156 2.117188 -6.207031 2.117188 -3.859375 C 2.117188 -1.515625 2.84375 0.535156 4.304688 2.292969 Z "/>
</g>
<g id="glyph-0-5">
<path d="M 0.652344 -4.921875 C 0.652344 -6.550781 1.089844 -7.84375 1.972656 -8.808594 C 2.855469 -9.773438 4.046875 -10.253906 5.554688 -10.253906 C 6.957031 -10.253906 8.082031 -9.78125 8.9375 -8.839844 C 9.792969 -7.898438 10.222656 -6.671875 10.222656 -5.164062 C 10.222656 -3.527344 9.78125 -2.230469 8.90625 -1.269531 C 8.03125 -0.308594 6.859375 0.167969 5.390625 0.167969 C 3.957031 0.167969 2.808594 -0.300781 1.945312 -1.242188 C 1.082031 -2.183594 0.652344 -3.410156 0.652344 -4.921875 M 2.019531 -5.027344 C 2.019531 -3.804688 2.328125 -2.828125 2.953125 -2.09375 C 3.574219 -1.355469 4.386719 -0.988281 5.390625 -0.988281 C 6.46875 -0.988281 7.3125 -1.34375 7.925781 -2.046875 C 8.539062 -2.753906 8.847656 -3.738281 8.847656 -5.007812 C 8.847656 -6.308594 8.546875 -7.3125 7.945312 -8.019531 C 7.34375 -8.726562 6.519531 -9.082031 5.476562 -9.082031 C 4.445312 -9.082031 3.613281 -8.707031 2.976562 -7.960938 C 2.335938 -7.214844 2.019531 -6.238281 2.019531 -5.027344 Z "/>
</g>
<g id="glyph-0-6">
<path d="M 7.390625 0 L 6.113281 0 L 6.113281 -1.199219 L 6.085938 -1.199219 C 5.5625 -0.285156 4.746094 0.167969 3.640625 0.167969 C 2.726562 0.167969 2.003906 -0.15625 1.464844 -0.804688 C 0.925781 -1.453125 0.65625 -2.328125 0.65625 -3.429688 C 0.65625 -4.621094 0.960938 -5.574219 1.570312 -6.292969 C 2.175781 -7.011719 2.972656 -7.371094 3.953125 -7.371094 C 4.933594 -7.371094 5.644531 -6.988281 6.085938 -6.222656 L 6.113281 -6.222656 L 6.113281 -10.65625 L 7.390625 -10.65625 L 7.390625 0 M 6.121094 -4.285156 C 6.121094 -4.859375 5.929688 -5.34375 5.550781 -5.730469 C 5.171875 -6.121094 4.703125 -6.316406 4.148438 -6.316406 C 3.46875 -6.316406 2.9375 -6.0625 2.546875 -5.554688 C 2.15625 -5.050781 1.960938 -4.363281 1.960938 -3.488281 C 1.960938 -2.6875 2.148438 -2.050781 2.523438 -1.585938 C 2.898438 -1.117188 3.398438 -0.886719 4.023438 -0.886719 C 4.640625 -0.886719 5.144531 -1.113281 5.535156 -1.570312 C 5.925781 -2.03125 6.121094 -2.601562 6.121094 -3.28125 Z "/>
</g>
<g id="glyph-0-7">
<path d="M 6.496094 -8.925781 L 2.605469 -8.925781 L 2.605469 -5.554688 L 6.210938 -5.554688 L 6.210938 -4.40625 L 2.605469 -4.40625 L 2.605469 0 L 1.300781 0 L 1.300781 -10.085938 L 6.496094 -10.085938 Z "/>
</g>
<g id="glyph-0-8">
<path d="M 7.082031 0 L 5.800781 0 L 5.800781 -1.132812 L 5.773438 -1.132812 C 5.292969 -0.265625 4.554688 0.167969 3.554688 0.167969 C 1.847656 0.167969 0.996094 -0.851562 0.996094 -2.890625 L 0.996094 -7.199219 L 2.257812 -7.199219 L 2.257812 -3.078125 C 2.257812 -1.617188 2.820312 -0.886719 3.9375 -0.886719 C 4.496094 -0.886719 4.945312 -1.089844 5.285156 -1.5 C 5.628906 -1.910156 5.800781 -2.429688 5.800781 -3.054688 L 5.800781 -7.199219 L 7.082031 -7.199219 Z "/>
</g>
<g id="glyph-0-9">
<path d="M 7.226562 0 L 5.957031 0 L 5.957031 -4.09375 C 5.957031 -5.574219 5.417969 -6.316406 4.335938 -6.316406 C 3.777344 -6.316406 3.316406 -6.105469 2.957031 -5.691406 C 2.59375 -5.273438 2.414062 -4.746094 2.414062 -4.109375 L 2.414062 0 L 1.140625 0 L 1.140625 -7.199219 L 2.414062 -7.199219 L 2.414062 -6.007812 L 2.441406 -6.007812 C 2.984375 -6.917969 3.773438 -7.371094 4.804688 -7.371094 C 5.59375 -7.371094 6.195312 -7.117188 6.609375 -6.609375 C 7.019531 -6.105469 7.226562 -5.367188 7.226562 -4.402344 Z "/>
</g>
<g id="glyph-0-10">
<path d="M 6.113281 -0.324219 C 5.5625 0.00390625 4.898438 0.167969 4.121094 0.167969 C 3.078125 0.167969 2.242188 -0.164062 1.609375 -0.832031 C 0.972656 -1.5 0.65625 -2.367188 0.65625 -3.429688 C 0.65625 -4.613281 1 -5.5625 1.683594 -6.285156 C 2.367188 -7.007812 3.28125 -7.371094 4.425781 -7.371094 C 5.085938 -7.371094 5.652344 -7.253906 6.121094 -7.019531 L 6.121094 -5.753906 C 5.613281 -6.128906 5.046875 -6.316406 4.425781 -6.316406 C 3.699219 -6.316406 3.105469 -6.0625 2.644531 -5.554688 C 2.1875 -5.050781 1.960938 -4.378906 1.960938 -3.535156 C 1.960938 -2.707031 2.175781 -2.058594 2.605469 -1.589844 C 3.039062 -1.121094 3.621094 -0.886719 4.355469 -0.886719 C 4.976562 -0.886719 5.5625 -1.089844 6.113281 -1.496094 Z "/>
</g>
<g id="glyph-0-11">
<path d="M 4.597656 -0.0703125 C 4.320312 0.0820312 3.941406 0.15625 3.46875 0.15625 C 2.179688 0.15625 1.535156 -0.558594 1.535156 -1.984375 L 1.535156 -6.144531 L 0.300781 -6.144531 L 0.300781 -7.199219 L 1.535156 -7.199219 L 1.535156 -8.933594 L 2.804688 -9.335938 L 2.804688 -7.199219 L 4.597656 -7.199219 L 4.597656 -6.144531 L 2.804688 -6.144531 L 2.804688 -2.214844 C 2.804688 -1.742188 2.886719 -1.402344 3.046875 -1.199219 C 3.207031 -0.992188 3.472656 -0.890625 3.847656 -0.890625 C 4.132812 -0.890625 4.382812 -0.972656 4.597656 -1.132812 Z "/>
</g>
<g id="glyph-0-12">
<path d="M 0.984375 -9.738281 C 0.984375 -9.964844 1.058594 -10.15625 1.214844 -10.308594 C 1.367188 -10.464844 1.558594 -10.539062 1.785156 -10.539062 C 2.015625 -10.539062 2.207031 -10.464844 2.367188 -10.3125 C 2.523438 -10.160156 2.605469 -9.96875 2.605469 -9.738281 C 2.605469 -9.515625 2.523438 -9.328125 2.367188 -9.175781 C 2.207031 -9.027344 2.015625 -8.953125 1.785156 -8.953125 C 1.554688 -8.953125 1.363281 -9.027344 1.210938 -9.175781 C 1.058594 -9.328125 0.984375 -9.515625 0.984375 -9.738281 M 1.132812 0 L 1.132812 -7.199219 L 2.410156 -7.199219 L 2.410156 0 Z "/>
</g>
<g id="glyph-0-13">
<path d="M 0.65625 -3.523438 C 0.65625 -4.710938 0.988281 -5.648438 1.652344 -6.335938 C 2.316406 -7.027344 3.21875 -7.371094 4.355469 -7.371094 C 5.4375 -7.371094 6.285156 -7.039062 6.898438 -6.375 C 7.511719 -5.714844 7.820312 -4.800781 7.820312 -3.632812 C 7.820312 -2.496094 7.492188 -1.578125 6.835938 -0.878906 C 6.179688 -0.179688 5.300781 0.167969 4.199219 0.167969 C 3.121094 0.167969 2.261719 -0.167969 1.621094 -0.847656 C 0.980469 -1.523438 0.65625 -2.414062 0.65625 -3.523438 M 1.960938 -3.5625 C 1.960938 -2.730469 2.167969 -2.078125 2.585938 -1.601562 C 3.007812 -1.125 3.570312 -0.886719 4.277344 -0.886719 C 5.007812 -0.886719 5.5625 -1.117188 5.945312 -1.585938 C 6.324219 -2.050781 6.515625 -2.722656 6.515625 -3.59375 C 6.515625 -4.46875 6.324219 -5.144531 5.945312 -5.613281 C 5.5625 -6.082031 5.007812 -6.316406 4.277344 -6.316406 C 3.5625 -6.316406 2.996094 -6.070312 2.582031 -5.578125 C 2.167969 -5.089844 1.960938 -4.417969 1.960938 -3.5625 Z "/>
</g>
<g id="glyph-0-14">
<path d="M 0.164062 2.292969 C 1.625 0.539062 2.355469 -1.511719 2.355469 -3.859375 C 2.355469 -6.214844 1.621094 -8.289062 0.148438 -10.085938 L 1.28125 -10.085938 C 2.75 -8.367188 3.484375 -6.285156 3.484375 -3.847656 C 3.484375 -1.410156 2.75 0.636719 1.28125 2.292969 Z "/>
</g>
</g>
</defs>
<g fill="rgb(100%, 52.54902%, 18.431373%)" fill-opacity="1">
<use xlink:href="#glyph-0-0" x="30" y="34.107422"/>
<use xlink:href="#glyph-0-1" x="43" y="34.107422"/>
<use xlink:href="#glyph-0-2" x="56" y="34.107422"/>
<use xlink:href="#glyph-0-3" x="69" y="34.107422"/>
<use xlink:href="#glyph-0-4" x="73" y="34.107422"/>
</g>
<g fill="rgb(100%, 52.54902%, 18.431373%)" fill-opacity="1">
<use xlink:href="#glyph-0-5" x="77" y="34.107422"/>
<use xlink:href="#glyph-0-6" x="88" y="34.107422"/>
<use xlink:href="#glyph-0-6" x="97" y="34.107422"/>
<use xlink:href="#glyph-0-3" x="106" y="34.107422"/>
<use xlink:href="#glyph-0-7" x="110" y="34.107422"/>
<use xlink:href="#glyph-0-8" x="117" y="34.107422"/>
<use xlink:href="#glyph-0-9" x="125" y="34.107422"/>
<use xlink:href="#glyph-0-10" x="133" y="34.107422"/>
<use xlink:href="#glyph-0-11" x="140" y="34.107422"/>
<use xlink:href="#glyph-0-12" x="145" y="34.107422"/>
<use xlink:href="#glyph-0-13" x="149" y="34.107422"/>
<use xlink:href="#glyph-0-9" x="157" y="34.107422"/>
</g>
<g fill="rgb(100%, 52.54902%, 18.431373%)" fill-opacity="1">
<use xlink:href="#glyph-0-14" x="165" y="34.107422"/>
</g>
</svg>
