<?xml version="1.0" encoding="UTF-8"?>
<svg xmlns="http://www.w3.org/2000/svg" xmlns:xlink="http://www.w3.org/1999/xlink" width="1920" height="1080" viewBox="0 0 1920 1080">
<defs>
<g>
<g id="glyph-0-0">
<path d="M 9.582031 -2.636719 L 10.402344 -2.898438 C 10.757812 -2.046875 11.078125 -1.195312 11.355469 -0.34375 L 10.507812 -0.03125 C 10.425781 -0.308594 10.335938 -0.589844 10.242188 -0.871094 C 8.617188 -0.765625 7.097656 -0.644531 5.675781 -0.515625 L 5.429688 -1.453125 C 6.257812 -1.476562 7.0625 -1.507812 7.839844 -1.542969 L 7.839844 -3.328125 L 4.921875 -3.328125 L 4.921875 1.621094 L 3.984375 1.621094 L 3.984375 -4.160156 L 7.839844 -4.160156 L 7.839844 -5.398438 L 5.652344 -5.398438 L 5.652344 -4.953125 L 4.738281 -4.953125 L 4.738281 -10.382812 L 11.886719 -10.382812 L 11.886719 -4.953125 L 10.976562 -4.953125 L 10.976562 -5.398438 L 8.777344 -5.398438 L 8.777344 -4.160156 L 12.617188 -4.160156 L 12.617188 0.0976562 C 12.617188 1.0625 12.136719 1.546875 11.171875 1.554688 C 10.667969 1.566406 10.125 1.566406 9.542969 1.554688 C 9.5 1.277344 9.4375 0.957031 9.347656 0.59375 C 9.808594 0.652344 10.289062 0.683594 10.792969 0.683594 C 11.382812 0.683594 11.679688 0.457031 11.679688 0.0078125 L 11.679688 -3.328125 L 8.777344 -3.328125 L 8.777344 -1.59375 C 9.179688 -1.617188 9.574219 -1.636719 9.960938 -1.660156 C 9.84375 -1.984375 9.71875 -2.3125 9.582031 -2.636719 M 0.15625 -4.785156 C 1.34375 -6.625 2.253906 -8.726562 2.878906 -11.085938 L 3.855469 -10.839844 C 3.515625 -9.699219 3.136719 -8.632812 2.722656 -7.644531 L 2.722656 1.710938 L 1.785156 1.710938 L 1.785156 -5.671875 C 1.410156 -4.96875 1.011719 -4.3125 0.585938 -3.703125 C 0.457031 -4.085938 0.3125 -4.445312 0.15625 -4.785156 M 8.777344 -6.230469 L 10.976562 -6.230469 L 10.976562 -7.492188 L 8.777344 -7.492188 L 8.777344 -6.230469 M 5.652344 -6.230469 L 7.839844 -6.230469 L 7.839844 -7.492188 L 5.652344 -7.492188 L 5.652344 -6.230469 M 10.976562 -9.550781 L 8.777344 -9.550781 L 8.777344 -8.300781 L 10.976562 -8.300781 L 10.976562 -9.550781 M 5.652344 -8.300781 L 7.839844 -8.300781 L 7.839844 -9.550781 L 5.652344 -9.550781 Z "/>
</g>
<g id="glyph-0-1">
<path d="M 11.316406 1.699219 L 11.316406 1.074219 L 0.976562 1.074219 L 0.976562 -7.753906 L 2.019531 -7.753906 L 2.019531 0.109375 L 11.316406 0.109375 L 11.316406 -7.753906 L 12.355469 -7.753906 L 12.355469 1.699219 L 11.316406 1.699219 M 6.394531 -7.820312 L 9.480469 -9.460938 L 2.109375 -9.460938 L 2.109375 -10.410156 L 11.027344 -10.410156 L 11.027344 -9.328125 L 7.382812 -7.3125 L 7.382812 -2.179688 C 7.382812 -1.097656 6.847656 -0.554688 5.78125 -0.554688 C 5.347656 -0.554688 4.804688 -0.5625 4.152344 -0.578125 C 4.128906 -0.875 4.074219 -1.226562 3.996094 -1.632812 C 4.554688 -1.566406 5.078125 -1.53125 5.574219 -1.53125 C 6.121094 -1.53125 6.394531 -1.789062 6.394531 -2.3125 L 6.394531 -7.820312 M 5.585938 -4.941406 L 6.121094 -4.121094 C 5.050781 -3.511719 3.914062 -2.84375 2.707031 -2.117188 L 2.121094 -3.015625 C 3.199219 -3.535156 4.351562 -4.175781 5.585938 -4.941406 M 7.578125 -4.160156 L 8.203125 -4.914062 C 9.167969 -4.316406 10.164062 -3.65625 11.199219 -2.9375 L 10.496094 -2.0625 C 9.539062 -2.808594 8.566406 -3.507812 7.578125 -4.160156 M 2.539062 -7.257812 L 3.175781 -7.960938 C 4.046875 -7.363281 4.882812 -6.746094 5.691406 -6.113281 L 4.988281 -5.304688 C 4.144531 -6.027344 3.328125 -6.675781 2.539062 -7.257812 M 10.195312 -7.820312 L 10.949219 -7.117188 C 10.265625 -6.535156 9.496094 -5.914062 8.644531 -5.253906 L 7.96875 -5.996094 C 8.734375 -6.558594 9.476562 -7.167969 10.195312 -7.820312 Z "/>
</g>
<g id="glyph-0-2">
<path d="M 8.699219 -11.046875 L 9.738281 -10.890625 C 9.558594 -10.050781 9.34375 -9.265625 9.101562 -8.535156 L 13.085938 -8.535156 L 13.085938 -7.648438 L 12.265625 -7.648438 C 12.046875 -5.097656 11.492188 -3.070312 10.597656 -1.570312 C 11.300781 -0.613281 12.195312 0.167969 13.28125 0.773438 C 13.003906 1.15625 12.769531 1.5 12.578125 1.804688 C 11.519531 1.117188 10.636719 0.300781 9.933594 -0.644531 C 9.136719 0.34375 8.1875 1.203125 7.082031 1.933594 C 6.890625 1.683594 6.644531 1.410156 6.339844 1.113281 C 7.554688 0.316406 8.542969 -0.59375 9.296875 -1.609375 C 8.59375 -2.824219 8.128906 -4.226562 7.902344 -5.8125 C 7.722656 -5.492188 7.53125 -5.191406 7.332031 -4.914062 C 7.15625 -5.167969 6.941406 -5.445312 6.679688 -5.75 C 7.6875 -7.199219 8.359375 -8.964844 8.699219 -11.046875 M 0.3125 -3.535156 L 2.292969 -3.535156 C 2.484375 -3.863281 2.667969 -4.203125 2.851562 -4.550781 L 3.789062 -4.25 C 3.648438 -4.007812 3.511719 -3.769531 3.371094 -3.535156 L 6.5625 -3.535156 L 6.5625 -2.6875 C 6.234375 -1.839844 5.734375 -1.089844 5.066406 -0.449219 C 5.542969 -0.222656 6.027344 0.00390625 6.523438 0.226562 L 5.949219 1.125 C 5.414062 0.824219 4.851562 0.519531 4.269531 0.214844 C 3.289062 0.917969 2.054688 1.472656 0.558594 1.882812 C 0.421875 1.605469 0.273438 1.300781 0.117188 0.96875 C 1.382812 0.683594 2.457031 0.269531 3.332031 -0.265625 C 2.585938 -0.648438 1.804688 -1.039062 0.988281 -1.4375 C 1.265625 -1.839844 1.535156 -2.25 1.796875 -2.675781 L 0.3125 -2.675781 L 0.3125 -3.535156 M 0.457031 -8.015625 L 3.449219 -8.015625 L 3.449219 -10.929688 L 4.414062 -10.929688 L 4.414062 -8.015625 L 6.914062 -8.015625 L 6.914062 -7.15625 L 4.414062 -7.15625 L 4.414062 -6.359375 L 4.804688 -6.804688 C 5.613281 -6.214844 6.289062 -5.691406 6.835938 -5.242188 L 6.210938 -4.511719 C 5.734375 -4.964844 5.132812 -5.472656 4.414062 -6.035156 L 4.414062 -4.550781 L 3.449219 -4.550781 L 3.449219 -6.375 C 2.660156 -5.550781 1.742188 -4.824219 0.691406 -4.199219 C 0.523438 -4.449219 0.339844 -4.714844 0.128906 -4.992188 C 1.222656 -5.582031 2.226562 -6.304688 3.136719 -7.15625 L 0.457031 -7.15625 L 0.457031 -8.015625 M 11.222656 -7.648438 L 8.789062 -7.648438 C 8.746094 -7.535156 8.699219 -7.429688 8.644531 -7.324219 C 8.800781 -5.484375 9.234375 -3.910156 9.949219 -2.597656 C 10.640625 -3.863281 11.066406 -5.550781 11.222656 -7.648438 M 2.265625 -1.738281 C 2.882812 -1.460938 3.515625 -1.167969 4.167969 -0.867188 C 4.765625 -1.378906 5.234375 -1.980469 5.574219 -2.675781 L 2.863281 -2.675781 C 2.664062 -2.355469 2.464844 -2.042969 2.265625 -1.738281 M 6.328125 -10.605469 L 7.136719 -10.070312 C 6.65625 -9.445312 6.179688 -8.871094 5.703125 -8.339844 C 5.503906 -8.511719 5.269531 -8.695312 5 -8.886719 C 5.453125 -9.417969 5.894531 -9.988281 6.328125 -10.605469 M 0.792969 -10.03125 L 1.535156 -10.539062 C 1.925781 -10.0625 2.332031 -9.550781 2.746094 -9.003906 L 1.941406 -8.429688 C 1.558594 -8.996094 1.175781 -9.527344 0.792969 -10.03125 Z "/>
</g>
<g id="glyph-0-3">
<path d="M 0.773438 -6.53125 C 0.773438 -6.765625 0.855469 -6.960938 1.023438 -7.117188 C 1.1875 -7.273438 1.382812 -7.351562 1.613281 -7.351562 C 1.847656 -7.351562 2.046875 -7.269531 2.214844 -7.113281 C 2.378906 -6.953125 2.460938 -6.761719 2.460938 -6.53125 C 2.460938 -6.300781 2.378906 -6.105469 2.21875 -5.945312 C 2.058594 -5.785156 1.855469 -5.703125 1.609375 -5.703125 C 1.375 -5.703125 1.175781 -5.785156 1.015625 -5.945312 C 0.855469 -6.105469 0.773438 -6.300781 0.773438 -6.53125 M 0.773438 -0.671875 C 0.773438 -0.90625 0.855469 -1.101562 1.015625 -1.261719 C 1.175781 -1.421875 1.375 -1.503906 1.613281 -1.503906 C 1.859375 -1.503906 2.058594 -1.421875 2.21875 -1.257812 C 2.378906 -1.097656 2.460938 -0.902344 2.460938 -0.671875 C 2.460938 -0.445312 2.378906 -0.25 2.21875 -0.0859375 C 2.058594 0.0742188 1.855469 0.15625 1.609375 0.15625 C 1.371094 0.15625 1.171875 0.0742188 1.011719 -0.0859375 C 0.855469 -0.25 0.773438 -0.445312 0.773438 -0.671875 Z "/>
</g>
<g id="glyph-0-4">
</g>
<g id="glyph-0-5">
<path d="M 7 -7.199219 L 3.730469 1.085938 C 3.121094 2.625 2.265625 3.390625 1.160156 3.390625 C 0.84375 3.390625 0.570312 3.355469 0.34375 3.289062 L 0.34375 2.167969 C 0.59375 2.261719 0.832031 2.3125 1.0625 2.3125 C 1.636719 2.3125 2.070312 1.972656 2.355469 1.296875 L 2.910156 -0.0117188 L 0.0859375 -7.199219 L 1.496094 -7.199219 L 3.378906 -1.789062 L 3.535156 -1.199219 L 3.566406 -1.199219 C 3.59375 -1.332031 3.644531 -1.527344 3.722656 -1.777344 L 5.691406 -7.199219 Z "/>
</g>
<g id="glyph-0-6">
<path d="M 5.78125 -8.496094 L 8.671875 -8.496094 L 8.671875 -10.945312 L 9.609375 -10.945312 L 9.609375 -8.496094 L 12.5 -8.496094 L 12.5 1.632812 L 11.535156 1.632812 L 11.535156 0.800781 L 6.746094 0.800781 L 6.746094 1.632812 L 5.78125 1.632812 L 5.78125 -8.496094 M 1.472656 -5.242188 L 2.851562 -5.242188 L 2.851562 -7.546875 L 3.789062 -7.546875 L 3.789062 -5.242188 L 5 -5.242188 L 5 -4.355469 L 3.789062 -4.355469 L 3.789062 -2.082031 C 4.242188 -2.144531 4.703125 -2.207031 5.183594 -2.273438 C 5.140625 -1.933594 5.109375 -1.625 5.089844 -1.347656 C 4.671875 -1.300781 4.234375 -1.246094 3.789062 -1.183594 L 3.789062 1.75 L 2.851562 1.75 L 2.851562 -1.0625 C 2.039062 -0.953125 1.179688 -0.832031 0.273438 -0.695312 L 0.167969 -1.671875 C 1.015625 -1.753906 1.910156 -1.851562 2.851562 -1.964844 L 2.851562 -4.355469 L 0.507812 -4.355469 L 0.507812 -5.242188 C 0.914062 -6.296875 1.28125 -7.285156 1.601562 -8.210938 L 0.324219 -8.210938 L 0.324219 -9.09375 L 1.902344 -9.09375 C 2.140625 -9.820312 2.347656 -10.5 2.527344 -11.140625 L 3.515625 -10.929688 C 3.320312 -10.324219 3.113281 -9.710938 2.898438 -9.09375 L 5.183594 -9.09375 L 5.183594 -8.210938 L 2.589844 -8.210938 C 2.238281 -7.230469 1.867188 -6.238281 1.472656 -5.242188 M 9.609375 -0.109375 L 11.535156 -0.109375 L 11.535156 -3.445312 L 9.609375 -3.445312 L 9.609375 -0.109375 M 6.746094 -0.109375 L 8.671875 -0.109375 L 8.671875 -3.445312 L 6.746094 -3.445312 L 6.746094 -0.109375 M 11.535156 -7.585938 L 9.609375 -7.585938 L 9.609375 -4.328125 L 11.535156 -4.328125 L 11.535156 -7.585938 M 6.746094 -4.328125 L 8.671875 -4.328125 L 8.671875 -7.585938 L 6.746094 -7.585938 Z "/>
</g>
<g id="glyph-0-7">
<path d="M 1.445312 -7.6875 C 2.195312 -6.605469 2.921875 -5.542969 3.625 -4.511719 C 4.144531 -5.785156 4.46875 -7.160156 4.609375 -8.640625 L 0.519531 -8.640625 L 0.519531 -9.628906 L 5.675781 -9.628906 L 5.675781 -8.679688 C 5.4375 -6.792969 4.976562 -5.082031 4.289062 -3.542969 C 4.996094 -2.503906 5.679688 -1.496094 6.339844 -0.515625 L 5.402344 0.109375 C 4.859375 -0.746094 4.3125 -1.601562 3.757812 -2.460938 C 2.984375 -1.046875 2 0.207031 0.808594 1.296875 C 0.632812 1.027344 0.421875 0.710938 0.167969 0.34375 C 1.410156 -0.769531 2.394531 -2.027344 3.125 -3.429688 C 2.316406 -4.667969 1.496094 -5.910156 0.664062 -7.15625 L 1.445312 -7.6875 M 6.199219 -8.210938 L 10.535156 -8.210938 L 10.535156 -10.996094 L 11.589844 -10.996094 L 11.589844 -8.210938 L 13.175781 -8.210938 L 13.175781 -7.21875 L 11.589844 -7.21875 L 11.589844 -0.398438 C 11.589844 0.863281 10.96875 1.492188 9.726562 1.492188 C 9.335938 1.492188 8.695312 1.488281 7.800781 1.476562 C 7.757812 1.15625 7.6875 0.765625 7.589844 0.304688 C 8.449219 0.375 9.105469 0.410156 9.558594 0.410156 C 10.207031 0.410156 10.535156 0.0820312 10.535156 -0.578125 L 10.535156 -7.21875 L 6.199219 -7.21875 L 6.199219 -8.210938 M 6.433594 -5.59375 L 7.277344 -6.101562 C 7.980469 -5.066406 8.601562 -4.066406 9.140625 -3.09375 L 8.164062 -2.53125 C 7.652344 -3.511719 7.074219 -4.535156 6.433594 -5.59375 Z "/>
</g>
<g id="glyph-0-8">
<path d="M 0.167969 -1.765625 C 1.125 -3.152344 1.859375 -4.652344 2.371094 -6.257812 L 0.234375 -6.257812 L 0.234375 -7.140625 L 2.394531 -7.140625 L 2.394531 -9.109375 C 1.804688 -9.039062 1.1875 -8.972656 0.546875 -8.914062 C 0.484375 -9.207031 0.40625 -9.519531 0.3125 -9.851562 C 2.386719 -10.050781 4.035156 -10.257812 5.261719 -10.476562 L 5.507812 -9.523438 C 4.832031 -9.421875 4.101562 -9.320312 3.320312 -9.226562 L 3.320312 -7.140625 L 5.011719 -7.140625 L 5.011719 -6.828125 C 5.804688 -8 6.53125 -9.433594 7.199219 -11.125 L 8.191406 -10.800781 C 7.929688 -10.203125 7.671875 -9.640625 7.421875 -9.121094 L 12.773438 -9.121094 L 12.773438 -8.195312 C 12.589844 -7.738281 12.253906 -7.007812 11.757812 -6.007812 C 11.496094 -6.148438 11.175781 -6.277344 10.792969 -6.398438 C 11.160156 -7.164062 11.429688 -7.761719 11.601562 -8.195312 L 6.953125 -8.195312 C 6.492188 -7.300781 6.046875 -6.542969 5.613281 -5.917969 C 5.386719 -6.160156 5.1875 -6.363281 5.011719 -6.53125 L 5.011719 -6.257812 L 3.320312 -6.257812 L 3.320312 -4.875 L 3.777344 -5.292969 C 4.445312 -4.667969 4.96875 -4.128906 5.351562 -3.679688 L 4.675781 -3.027344 C 4.207031 -3.589844 3.753906 -4.09375 3.320312 -4.539062 L 3.320312 1.777344 L 2.394531 1.777344 L 2.394531 -3.953125 C 1.902344 -2.710938 1.328125 -1.628906 0.675781 -0.710938 C 0.53125 -1.074219 0.359375 -1.425781 0.167969 -1.765625 M 8.347656 -7.558594 L 9.335938 -7.558594 L 9.335938 0.0703125 C 9.335938 1.070312 8.839844 1.570312 7.851562 1.570312 C 7.453125 1.570312 6.964844 1.554688 6.394531 1.53125 C 6.351562 1.207031 6.296875 0.855469 6.238281 0.476562 C 6.707031 0.542969 7.210938 0.578125 7.746094 0.578125 C 8.148438 0.578125 8.347656 0.359375 8.347656 -0.0859375 L 8.347656 -7.558594 M 10.011719 -5.070312 L 10.910156 -5.476562 C 11.613281 -4.261719 12.371094 -2.722656 13.175781 -0.867188 L 12.160156 -0.371094 C 11.449219 -2.089844 10.734375 -3.65625 10.011719 -5.070312 M 6.457031 -5.449219 L 7.433594 -5.097656 C 6.851562 -3.328125 6.21875 -1.730469 5.535156 -0.304688 C 5.257812 -0.445312 4.929688 -0.582031 4.558594 -0.722656 C 5.226562 -2.09375 5.859375 -3.667969 6.457031 -5.449219 Z "/>
</g>
</g>
</defs>
<g fill="rgb(51.372549%, 75.686275%, 40.392157%)" fill-opacity="1">
<use xlink:href="#glyph-0-0" x="30" y="34.107422"/>
<use xlink:href="#glyph-0-1" x="43" y="34.107422"/>
<use xlink:href="#glyph-0-2" x="56" y="34.107422"/>
<use xlink:href="#glyph-0-3" x="69" y="34.107422"/>
<use xlink:href="#glyph-0-4" x="72" y="34.107422"/>
</g>
<g fill="rgb(51.372549%, 75.686275%, 40.392157%)" fill-opacity="1">
<use xlink:href="#glyph-0-5" x="76" y="34.107422"/>
</g>
<g fill="rgb(51.372549%, 75.686275%, 40.392157%)" fill-opacity="1">
<use xlink:href="#glyph-0-6" x="83" y="34.107422"/>
<use xlink:href="#glyph-0-7" x="96" y="34.107422"/>
<use xlink:href="#glyph-0-8" x="109" y="34.107422"/>
</g>
</svg>
