<?xml version="1.0" encoding="UTF-8"?>
<svg xmlns="http://www.w3.org/2000/svg" xmlns:xlink="http://www.w3.org/1999/xlink" width="1920" height="1080" viewBox="0 0 1920 1080">
<defs>
<g>
<g id="glyph-0-0">
<path d="M 1.875 -8.859375 L 7.566406 -8.859375 C 8.109375 -9.652344 8.59375 -10.414062 9.023438 -11.152344 L 10.027344 -10.632812 C 9.59375 -10.035156 9.148438 -9.445312 8.699219 -8.859375 L 11.457031 -8.859375 L 11.457031 -3.546875 L 10.417969 -3.546875 L 10.417969 -4.121094 L 2.917969 -4.121094 L 2.917969 -3.546875 L 1.875 -3.546875 L 1.875 -8.859375 M 10.417969 -7.921875 L 2.917969 -7.921875 L 2.917969 -5.058594 L 10.417969 -5.058594 L 10.417969 -7.921875 M 3.527344 -2.871094 L 4.542969 -2.871094 L 4.542969 -0.59375 C 4.542969 0.0859375 4.847656 0.421875 5.457031 0.421875 L 8.074219 0.421875 C 8.585938 0.421875 8.90625 0.164062 9.035156 -0.359375 C 9.113281 -0.628906 9.191406 -1.113281 9.269531 -1.816406 C 9.523438 -1.703125 9.855469 -1.574219 10.273438 -1.425781 C 10.160156 -0.765625 10.035156 -0.222656 9.894531 0.203125 C 9.625 0.957031 9.035156 1.335938 8.125 1.335938 L 5.246094 1.335938 C 4.101562 1.335938 3.527344 0.753906 3.527344 -0.410156 L 3.527344 -2.871094 M 1.496094 -2.960938 L 2.472656 -2.648438 C 2.117188 -1.566406 1.667969 -0.449219 1.121094 0.695312 C 0.84375 0.574219 0.523438 0.4375 0.167969 0.28125 C 0.671875 -0.734375 1.117188 -1.816406 1.496094 -2.960938 M 10.167969 -2.507812 L 10.910156 -3.078125 C 11.710938 -2.195312 12.460938 -1.304688 13.164062 -0.410156 L 12.292969 0.28125 C 11.675781 -0.589844 10.96875 -1.515625 10.167969 -2.507812 M 5.546875 -3.3125 L 6.339844 -3.835938 C 6.957031 -3.183594 7.527344 -2.488281 8.046875 -1.75 L 7.175781 -1.140625 C 6.652344 -1.921875 6.109375 -2.644531 5.546875 -3.3125 M 3.320312 -10.644531 L 4.113281 -11.152344 C 4.636719 -10.605469 5.105469 -10.042969 5.519531 -9.460938 L 4.636719 -8.886719 C 4.261719 -9.425781 3.824219 -10.011719 3.320312 -10.644531 Z "/>
</g>
<g id="glyph-0-1">
<path d="M 5.46875 -3.5625 L 12.34375 -3.5625 L 12.34375 1.726562 L 11.328125 1.726562 L 11.328125 0.917969 L 6.484375 0.917969 L 6.484375 1.726562 L 5.46875 1.726562 L 5.46875 -3.5625 M 5.207031 -6.035156 L 8.386719 -6.035156 L 8.386719 -8.066406 L 4.777344 -8.066406 L 4.777344 -9.003906 L 8.386719 -9.003906 L 8.386719 -11.085938 L 9.425781 -11.085938 L 9.425781 -9.003906 L 13.074219 -9.003906 L 13.074219 -8.066406 L 9.425781 -8.066406 L 9.425781 -6.035156 L 12.617188 -6.035156 L 12.617188 -5.097656 L 5.207031 -5.097656 L 5.207031 -6.035156 M 1.863281 -3.261719 C 3.015625 -3.425781 3.972656 -3.574219 4.726562 -3.703125 C 4.675781 -3.367188 4.636719 -3.035156 4.609375 -2.714844 C 3.644531 -2.574219 2.332031 -2.371094 0.664062 -2.101562 L 0.457031 -3.066406 C 1.011719 -3.644531 1.671875 -4.558594 2.441406 -5.8125 C 1.710938 -5.765625 1.050781 -5.71875 0.457031 -5.671875 L 0.207031 -6.554688 C 1.007812 -7.625 1.835938 -9.164062 2.695312 -11.179688 L 3.683594 -10.789062 C 2.746094 -8.949219 1.980469 -7.5625 1.378906 -6.632812 C 1.882812 -6.648438 2.410156 -6.664062 2.957031 -6.679688 C 3.25 -7.183594 3.558594 -7.730469 3.878906 -8.328125 L 4.84375 -7.84375 C 3.855469 -6.195312 2.859375 -4.667969 1.863281 -3.261719 M 11.328125 -2.648438 L 6.484375 -2.648438 L 6.484375 0.0078125 L 11.328125 0.0078125 L 11.328125 -2.648438 M 0.15625 -0.1875 C 1.761719 -0.5 3.328125 -0.84375 4.855469 -1.21875 C 4.832031 -0.871094 4.816406 -0.539062 4.816406 -0.226562 C 3.410156 0.0664062 1.953125 0.414062 0.441406 0.8125 Z "/>
</g>
<g id="glyph-0-2">
<path d="M 1.445312 -7.6875 C 2.195312 -6.605469 2.921875 -5.542969 3.625 -4.511719 C 4.144531 -5.785156 4.46875 -7.160156 4.609375 -8.640625 L 0.519531 -8.640625 L 0.519531 -9.628906 L 5.675781 -9.628906 L 5.675781 -8.679688 C 5.4375 -6.792969 4.976562 -5.082031 4.289062 -3.542969 C 4.996094 -2.503906 5.679688 -1.496094 6.339844 -0.515625 L 5.402344 0.109375 C 4.859375 -0.746094 4.3125 -1.601562 3.757812 -2.460938 C 2.984375 -1.046875 2 0.207031 0.808594 1.296875 C 0.632812 1.027344 0.421875 0.710938 0.167969 0.34375 C 1.410156 -0.769531 2.394531 -2.027344 3.125 -3.429688 C 2.316406 -4.667969 1.496094 -5.910156 0.664062 -7.15625 L 1.445312 -7.6875 M 6.199219 -8.210938 L 10.535156 -8.210938 L 10.535156 -10.996094 L 11.589844 -10.996094 L 11.589844 -8.210938 L 13.175781 -8.210938 L 13.175781 -7.21875 L 11.589844 -7.21875 L 11.589844 -0.398438 C 11.589844 0.863281 10.96875 1.492188 9.726562 1.492188 C 9.335938 1.492188 8.695312 1.488281 7.800781 1.476562 C 7.757812 1.15625 7.6875 0.765625 7.589844 0.304688 C 8.449219 0.375 9.105469 0.410156 9.558594 0.410156 C 10.207031 0.410156 10.535156 0.0820312 10.535156 -0.578125 L 10.535156 -7.21875 L 6.199219 -7.21875 L 6.199219 -8.210938 M 6.433594 -5.59375 L 7.277344 -6.101562 C 7.980469 -5.066406 8.601562 -4.066406 9.140625 -3.09375 L 8.164062 -2.53125 C 7.652344 -3.511719 7.074219 -4.535156 6.433594 -5.59375 Z "/>
</g>
<g id="glyph-0-3">
<path d="M 6.71875 -11.074219 L 7.800781 -11.074219 L 7.800781 -5.566406 C 9.488281 -6.785156 10.875 -8.0625 11.964844 -9.394531 L 12.890625 -8.703125 C 11.484375 -7.15625 9.789062 -5.679688 7.800781 -4.285156 L 7.800781 -0.515625 C 7.800781 0.0585938 8.050781 0.34375 8.554688 0.34375 L 10.78125 0.34375 C 11.355469 0.34375 11.683594 0.0898438 11.769531 -0.421875 C 11.875 -1.082031 11.953125 -1.808594 12.003906 -2.597656 C 12.371094 -2.457031 12.742188 -2.332031 13.125 -2.21875 C 13.046875 -1.414062 12.941406 -0.6875 12.8125 -0.046875 C 12.628906 0.847656 12.054688 1.296875 11.082031 1.296875 L 8.214844 1.296875 C 7.21875 1.296875 6.71875 0.753906 6.71875 -0.332031 L 6.71875 -11.074219 M 2.214844 -10.734375 L 2.214844 -6.828125 L 5.886719 -6.828125 L 5.886719 -5.851562 L 2.214844 -5.851562 L 2.214844 -0.320312 C 3.117188 -0.699219 4.296875 -1.238281 5.753906 -1.933594 C 5.753906 -1.527344 5.773438 -1.136719 5.808594 -0.761719 C 4.53125 -0.25 3.449219 0.230469 2.566406 0.683594 C 2.183594 0.882812 1.832031 1.121094 1.511719 1.398438 L 0.714844 0.382812 C 0.992188 0.175781 1.132812 -0.140625 1.132812 -0.566406 L 1.132812 -10.734375 Z "/>
</g>
</g>
</defs>
<g fill="rgb(96.862745%, 85.098039%, 43.529412%)" fill-opacity="1">
<use xlink:href="#glyph-0-0" x="30" y="34.107422"/>
<use xlink:href="#glyph-0-1" x="43" y="34.107422"/>
<use xlink:href="#glyph-0-2" x="56" y="34.107422"/>
<use xlink:href="#glyph-0-3" x="69" y="34.107422"/>
</g>
</svg>
