<?xml version="1.0" encoding="UTF-8"?>
<svg xmlns="http://www.w3.org/2000/svg" xmlns:xlink="http://www.w3.org/1999/xlink" width="854" height="480" viewBox="0 0 854 480">
<defs>
<g>
<g id="glyph-0-0">
<path d="M 2.414062 -1.015625 L 2.414062 0 L 1.140625 0 L 1.140625 -10.65625 L 2.414062 -10.65625 L 2.414062 -5.957031 L 2.441406 -5.957031 C 3.003906 -6.898438 3.832031 -7.371094 4.914062 -7.371094 C 5.816406 -7.371094 6.535156 -7.050781 7.066406 -6.414062 C 7.597656 -5.78125 7.863281 -4.910156 7.863281 -3.808594 C 7.863281 -2.59375 7.566406 -1.625 6.96875 -0.90625 C 6.371094 -0.191406 5.578125 0.167969 4.582031 0.167969 C 3.644531 0.167969 2.933594 -0.226562 2.441406 -1.015625 L 2.414062 -1.015625 M 2.410156 -2.960938 C 2.410156 -2.378906 2.597656 -1.890625 2.976562 -1.488281 C 3.351562 -1.085938 3.824219 -0.886719 4.394531 -0.886719 C 5.070312 -0.886719 5.601562 -1.144531 5.984375 -1.667969 C 6.363281 -2.1875 6.554688 -2.90625 6.554688 -3.828125 C 6.554688 -4.585938 6.378906 -5.191406 6.023438 -5.640625 C 5.667969 -6.089844 5.179688 -6.316406 4.5625 -6.316406 C 3.9375 -6.316406 3.421875 -6.089844 3.015625 -5.644531 C 2.613281 -5.199219 2.410156 -4.628906 2.410156 -3.9375 Z "/>
</g>
<g id="glyph-0-1">
<path d="M 8.273438 -5.203125 L 1.640625 -5.203125 L 1.640625 -6.183594 L 8.273438 -6.183594 L 8.273438 -5.203125 M 8.273438 -2.195312 L 1.640625 -2.195312 L 1.640625 -3.175781 L 8.273438 -3.175781 Z "/>
</g>
<g id="glyph-0-2">
<path d="M 6.054688 -10.085938 L 6.054688 -3.425781 L 7.566406 -3.425781 L 7.566406 -2.371094 L 6.054688 -2.371094 L 6.054688 0 L 4.816406 0 L 4.816406 -2.371094 L 0.109375 -2.371094 L 0.109375 -3.367188 C 0.949219 -4.308594 1.789062 -5.394531 2.636719 -6.621094 C 3.484375 -7.847656 4.183594 -9.003906 4.734375 -10.085938 L 6.054688 -10.085938 M 1.542969 -3.425781 L 4.816406 -3.425781 L 4.816406 -8.230469 C 4.367188 -7.417969 3.882812 -6.628906 3.367188 -5.867188 C 2.847656 -5.105469 2.242188 -4.292969 1.542969 -3.425781 Z "/>
</g>
</g>
</defs>
<g fill="rgb(100%, 100%, 100%)" fill-opacity="1">
<use xlink:href="#glyph-0-0" x="30" y="34.107422"/>
<use xlink:href="#glyph-0-1" x="39" y="34.107422"/>
<use xlink:href="#glyph-0-2" x="49" y="34.107422"/>
</g>
</svg>
