<?xml version="1.0" encoding="UTF-8"?>
<svg xmlns="http://www.w3.org/2000/svg" xmlns:xlink="http://www.w3.org/1999/xlink" width="1920" height="1080" viewBox="0 0 1920 1080">
<defs>
<g>
<g id="glyph-0-0">
<path d="M 4.832031 -9.570312 C 4.59375 -9.695312 4.332031 -9.757812 4.054688 -9.757812 C 3.257812 -9.757812 2.859375 -9.265625 2.859375 -8.273438 L 2.859375 -7.199219 L 4.542969 -7.199219 L 4.542969 -6.144531 L 2.859375 -6.144531 L 2.859375 0 L 1.59375 0 L 1.59375 -6.144531 L 0.363281 -6.144531 L 0.363281 -7.199219 L 1.59375 -7.199219 L 1.59375 -8.332031 C 1.59375 -9.105469 1.816406 -9.710938 2.261719 -10.152344 C 2.707031 -10.59375 3.273438 -10.8125 3.957031 -10.8125 C 4.324219 -10.8125 4.613281 -10.773438 4.832031 -10.691406 Z "/>
</g>
<g id="glyph-0-1">
<path d="M 3.191406 2.292969 C 1.726562 0.625 0.996094 -1.421875 0.996094 -3.847656 C 0.996094 -6.273438 1.726562 -8.351562 3.191406 -10.085938 L 4.316406 -10.085938 C 2.847656 -8.285156 2.117188 -6.207031 2.117188 -3.859375 C 2.117188 -1.515625 2.84375 0.535156 4.304688 2.292969 Z "/>
</g>
<g id="glyph-0-2">
<path d="M 4.851562 -3.503906 L 1.015625 -3.503906 L 1.015625 -4.484375 L 4.851562 -4.484375 Z "/>
</g>
<g id="glyph-0-3">
<path d="M 1.308594 -6.699219 C 2.023438 -7.144531 2.851562 -7.371094 3.789062 -7.371094 C 5.523438 -7.371094 6.394531 -6.457031 6.394531 -4.636719 L 6.394531 0 L 5.128906 0 L 5.128906 -1.113281 L 5.097656 -1.113281 C 4.597656 -0.257812 3.863281 0.167969 2.890625 0.167969 C 2.191406 0.167969 1.636719 -0.0195312 1.222656 -0.398438 C 0.8125 -0.773438 0.605469 -1.285156 0.605469 -1.925781 C 0.605469 -3.273438 1.402344 -4.054688 2.996094 -4.277344 L 5.128906 -4.578125 C 5.128906 -5.753906 4.644531 -6.339844 3.671875 -6.339844 C 2.808594 -6.339844 2.019531 -6.050781 1.308594 -5.46875 L 1.308594 -6.699219 M 3.445312 -3.386719 C 2.855469 -3.308594 2.445312 -3.160156 2.222656 -2.941406 C 2 -2.726562 1.886719 -2.421875 1.886719 -2.03125 C 1.886719 -1.6875 2.007812 -1.410156 2.253906 -1.191406 C 2.496094 -0.972656 2.816406 -0.867188 3.214844 -0.867188 C 3.773438 -0.867188 4.230469 -1.0625 4.589844 -1.453125 C 4.949219 -1.84375 5.128906 -2.332031 5.128906 -2.921875 L 5.128906 -3.613281 Z "/>
</g>
<g id="glyph-0-4">
<path d="M 0.164062 2.292969 C 1.625 0.539062 2.355469 -1.511719 2.355469 -3.859375 C 2.355469 -6.214844 1.621094 -8.289062 0.148438 -10.085938 L 1.28125 -10.085938 C 2.75 -8.367188 3.484375 -6.285156 3.484375 -3.847656 C 3.484375 -1.410156 2.75 0.636719 1.28125 2.292969 Z "/>
</g>
<g id="glyph-0-5">
</g>
<g id="glyph-0-6">
<path d="M 8.273438 -5.203125 L 1.640625 -5.203125 L 1.640625 -6.183594 L 8.273438 -6.183594 L 8.273438 -5.203125 M 8.273438 -2.195312 L 1.640625 -2.195312 L 1.640625 -3.175781 L 8.273438 -3.175781 Z "/>
</g>
</g>
</defs>
<g fill="rgb(98.823529%, 38.431373%, 33.333333%)" fill-opacity="1">
<use xlink:href="#glyph-0-0" x="30" y="34.107422"/>
<use xlink:href="#glyph-0-1" x="35" y="34.107422"/>
<use xlink:href="#glyph-0-2" x="39" y="34.107422"/>
<use xlink:href="#glyph-0-3" x="45" y="34.107422"/>
<use xlink:href="#glyph-0-4" x="52" y="34.107422"/>
<use xlink:href="#glyph-0-5" x="56" y="34.107422"/>
<use xlink:href="#glyph-0-6" x="60" y="34.107422"/>
<use xlink:href="#glyph-0-5" x="70" y="34.107422"/>
<use xlink:href="#glyph-0-2" x="74" y="34.107422"/>
<use xlink:href="#glyph-0-0" x="80" y="34.107422"/>
<use xlink:href="#glyph-0-1" x="85" y="34.107422"/>
<use xlink:href="#glyph-0-3" x="89" y="34.107422"/>
<use xlink:href="#glyph-0-4" x="96" y="34.107422"/>
</g>
</svg>
