<?xml version="1.0" encoding="UTF-8"?>
<svg xmlns="http://www.w3.org/2000/svg" xmlns:xlink="http://www.w3.org/1999/xlink" width="1920" height="1080" viewBox="0 0 1920 1080">
<defs>
<g>
<g id="glyph-0-0">
<path d="M 9.246094 -0.320312 C 9.738281 -0.335938 10.183594 -0.359375 10.574219 -0.382812 C 10.484375 -0.472656 10.398438 -0.558594 10.3125 -0.644531 L 10.753906 -1.035156 C 11.15625 -0.695312 11.519531 -0.339844 11.847656 0.03125 L 11.367188 0.4375 C 11.273438 0.324219 11.171875 0.214844 11.066406 0.109375 C 10.503906 0.152344 9.695312 0.21875 8.644531 0.304688 L 8.386719 -0.265625 C 8.65625 -0.511719 8.941406 -0.84375 9.246094 -1.269531 L 7.929688 -1.269531 L 7.929688 0.0976562 C 7.929688 0.558594 8.136719 0.789062 8.554688 0.789062 L 11.496094 0.789062 C 11.941406 0.789062 12.179688 0.59375 12.214844 0.203125 C 12.238281 0.0351562 12.269531 -0.441406 12.304688 -1.230469 C 12.566406 -1.117188 12.84375 -1 13.136719 -0.878906 C 13.078125 -0.183594 13.019531 0.292969 12.96875 0.554688 C 12.863281 1.214844 12.382812 1.542969 11.523438 1.542969 L 8.28125 1.542969 C 7.515625 1.542969 7.136719 1.109375 7.136719 0.242188 L 7.136719 -1.023438 C 6.40625 0.246094 4.925781 1.1875 2.695312 1.804688 C 2.601562 1.621094 2.421875 1.34375 2.160156 0.96875 C 4.261719 0.484375 5.652344 -0.261719 6.328125 -1.269531 L 4.207031 -1.269531 L 4.207031 -0.878906 L 3.425781 -0.878906 L 3.425781 -4.992188 L 6.328125 -4.992188 C 6.484375 -5.289062 6.636719 -5.589844 6.785156 -5.890625 L 7.589844 -5.539062 C 7.460938 -5.347656 7.335938 -5.167969 7.214844 -4.992188 L 11.484375 -4.992188 L 11.484375 -1.269531 L 10.011719 -1.269531 C 9.742188 -0.921875 9.488281 -0.605469 9.246094 -0.320312 M 6.40625 -10.710938 L 7.199219 -11.125 C 7.410156 -10.832031 7.699219 -10.398438 8.074219 -9.824219 L 13.007812 -9.824219 L 13.007812 -9.070312 L 2.304688 -9.070312 L 2.304688 -4.199219 C 2.261719 -1.683594 1.789062 0.253906 0.886719 1.609375 C 0.6875 1.332031 0.453125 1.023438 0.183594 0.683594 C 1 -0.628906 1.40625 -2.273438 1.40625 -4.25 L 1.40625 -9.824219 L 6.992188 -9.824219 C 6.765625 -10.164062 6.570312 -10.457031 6.40625 -10.710938 M 12.863281 -6.035156 C 12.683594 -5.851562 12.5 -5.628906 12.316406 -5.359375 C 11.527344 -5.75 10.882812 -6.265625 10.378906 -6.90625 L 10.378906 -5.359375 L 9.648438 -5.359375 L 9.648438 -6.90625 C 9.164062 -6.316406 8.59375 -5.832031 7.941406 -5.449219 C 7.769531 -5.65625 7.574219 -5.847656 7.355469 -6.023438 C 8.121094 -6.34375 8.773438 -6.78125 9.308594 -7.335938 L 7.773438 -7.335938 L 7.773438 -7.988281 L 9.648438 -7.988281 L 9.648438 -8.820312 L 10.378906 -8.820312 L 10.378906 -7.988281 L 12.449219 -7.988281 L 12.449219 -7.335938 L 10.675781 -7.335938 C 11.242188 -6.746094 11.96875 -6.3125 12.863281 -6.035156 M 2.410156 -5.828125 C 3.257812 -6.21875 3.949219 -6.722656 4.480469 -7.335938 L 2.722656 -7.335938 L 2.722656 -7.988281 L 4.738281 -7.988281 L 4.738281 -8.820312 L 5.46875 -8.820312 L 5.46875 -7.988281 L 7.292969 -7.988281 L 7.292969 -7.335938 L 5.46875 -7.335938 L 5.46875 -6.789062 L 5.769531 -7.117188 C 6.226562 -6.8125 6.617188 -6.539062 6.941406 -6.296875 L 6.523438 -5.800781 C 6.117188 -6.140625 5.765625 -6.394531 5.46875 -6.570312 L 5.46875 -5.359375 L 4.738281 -5.359375 L 4.738281 -6.75 C 4.203125 -6.117188 3.609375 -5.613281 2.96875 -5.242188 C 2.785156 -5.449219 2.601562 -5.644531 2.410156 -5.828125 M 10.703125 -1.945312 L 10.703125 -2.804688 L 7.707031 -2.804688 C 7.664062 -2.484375 7.605469 -2.199219 7.527344 -1.945312 L 10.703125 -1.945312 M 10.703125 -4.316406 L 7.824219 -4.316406 C 7.816406 -4.011719 7.804688 -3.726562 7.785156 -3.457031 L 10.703125 -3.457031 L 10.703125 -4.316406 M 4.207031 -3.457031 L 6.964844 -3.457031 C 6.992188 -3.726562 7.007812 -4.011719 7.019531 -4.316406 L 4.207031 -4.316406 L 4.207031 -3.457031 M 6.886719 -2.804688 L 4.207031 -2.804688 L 4.207031 -1.945312 L 6.652344 -1.945312 C 6.75 -2.207031 6.828125 -2.492188 6.886719 -2.804688 Z "/>
</g>
<g id="glyph-0-1">
<path d="M 10.183594 -2.765625 C 11.015625 -1.628906 11.914062 -0.324219 12.878906 1.152344 C 12.53125 1.351562 12.191406 1.550781 11.863281 1.75 C 11.617188 1.347656 11.378906 0.957031 11.144531 0.578125 C 8.296875 0.8125 6.066406 1.007812 4.453125 1.164062 L 3.972656 0.03125 C 4.519531 -0.210938 5.050781 -0.71875 5.574219 -1.492188 C 6.144531 -2.308594 6.675781 -3.167969 7.167969 -4.070312 L 3.75 -4.070312 L 3.75 -5.007812 L 7.839844 -5.007812 L 7.839844 -7.765625 L 4.386719 -7.765625 L 4.386719 -8.703125 L 7.839844 -8.703125 L 7.839844 -11.085938 L 8.878906 -11.085938 L 8.878906 -8.703125 L 12.488281 -8.703125 L 12.488281 -7.765625 L 8.878906 -7.765625 L 8.878906 -5.007812 L 13.097656 -5.007812 L 13.097656 -4.070312 L 8.476562 -4.070312 C 7.507812 -2.476562 6.5625 -1.101562 5.636719 0.0585938 C 7.292969 -0.0195312 8.945312 -0.136719 10.597656 -0.292969 C 10.152344 -0.992188 9.726562 -1.632812 9.324219 -2.21875 L 10.183594 -2.765625 M 2.109375 -3.808594 C 2.429688 -3.667969 2.773438 -3.527344 3.136719 -3.378906 C 2.523438 -1.53125 1.984375 0.140625 1.523438 1.632812 L 0.402344 1.257812 C 0.976562 -0.269531 1.546875 -1.960938 2.109375 -3.808594 M 0.832031 -7.546875 C 1.484375 -7.085938 2.25 -6.496094 3.125 -5.773438 C 2.804688 -5.410156 2.550781 -5.128906 2.371094 -4.929688 C 1.390625 -5.804688 0.660156 -6.425781 0.183594 -6.789062 L 0.832031 -7.546875 M 1.339844 -10.917969 C 2.035156 -10.363281 2.78125 -9.730469 3.582031 -9.015625 C 3.285156 -8.714844 3.03125 -8.445312 2.8125 -8.210938 C 2.015625 -9 1.300781 -9.664062 0.675781 -10.203125 Z "/>
</g>
<g id="glyph-0-2">
<path d="M 5.027344 -5.722656 L 11.941406 -5.722656 L 11.941406 -1.359375 L 11.027344 -1.359375 L 11.027344 -1.609375 L 9.933594 -1.609375 L 9.933594 0.0703125 C 9.933594 0.460938 10.117188 0.65625 10.480469 0.65625 L 11.511719 0.65625 C 11.839844 0.65625 12.03125 0.5 12.082031 0.1875 C 12.144531 -0.105469 12.191406 -0.605469 12.226562 -1.308594 C 12.476562 -1.195312 12.78125 -1.074219 13.136719 -0.945312 C 13.070312 -0.277344 12.996094 0.21875 12.917969 0.539062 C 12.820312 1.183594 12.40625 1.503906 11.667969 1.503906 L 10.117188 1.503906 C 9.378906 1.503906 9.011719 1.058594 9.011719 0.164062 L 9.011719 -1.609375 L 7.8125 -1.609375 C 7.691406 0.160156 6.5625 1.296875 4.425781 1.804688 C 4.21875 1.378906 4.050781 1.082031 3.917969 0.917969 C 5.742188 0.5625 6.730469 -0.28125 6.882812 -1.609375 L 5.9375 -1.609375 L 5.9375 -1.308594 L 5.027344 -1.308594 L 5.027344 -5.722656 M 0.300781 -4.09375 L 1.902344 -4.09375 L 1.902344 -5.878906 L 1.121094 -5.878906 L 1.121094 -6.660156 C 1.019531 -6.480469 0.921875 -6.308594 0.820312 -6.140625 C 0.601562 -6.441406 0.382812 -6.734375 0.15625 -7.011719 C 0.894531 -8.167969 1.433594 -9.507812 1.769531 -11.035156 L 2.722656 -10.839844 C 2.570312 -10.257812 2.402344 -9.703125 2.21875 -9.171875 L 4.441406 -9.171875 L 4.441406 -8.289062 L 1.882812 -8.289062 C 1.664062 -7.753906 1.429688 -7.246094 1.171875 -6.765625 L 4.089844 -6.765625 L 4.089844 -5.878906 L 2.824219 -5.878906 L 2.824219 -4.09375 L 4.464844 -4.09375 L 4.464844 -3.210938 L 2.824219 -3.210938 L 2.824219 -0.253906 C 3.363281 -0.636719 3.875 -1.007812 4.363281 -1.375 C 4.414062 -1.070312 4.484375 -0.734375 4.570312 -0.371094 C 3.945312 0.0546875 3.367188 0.472656 2.839844 0.878906 C 2.683594 0.992188 2.453125 1.1875 2.148438 1.464844 L 1.472656 0.632812 C 1.757812 0.386719 1.902344 0.0585938 1.902344 -0.359375 L 1.902344 -3.210938 L 0.300781 -3.210938 L 0.300781 -4.09375 M 4.347656 -7.402344 L 6.640625 -7.402344 C 6.472656 -7.691406 6.242188 -8.042969 5.949219 -8.457031 L 6.71875 -8.898438 C 6.953125 -8.605469 7.25 -8.199219 7.605469 -7.6875 L 7.109375 -7.402344 L 9.355469 -7.402344 C 9.640625 -7.867188 9.910156 -8.367188 10.15625 -8.898438 L 11.066406 -8.457031 C 10.863281 -8.109375 10.640625 -7.757812 10.398438 -7.402344 L 12.839844 -7.402344 L 12.839844 -6.621094 L 4.347656 -6.621094 L 4.347656 -7.402344 M 4.871094 -9.71875 L 8.308594 -9.71875 C 8.128906 -10.007812 7.898438 -10.335938 7.617188 -10.710938 L 8.410156 -11.179688 C 8.765625 -10.734375 9.0625 -10.328125 9.296875 -9.953125 L 8.875 -9.71875 L 12.292969 -9.71875 L 12.292969 -8.9375 L 4.871094 -8.9375 L 4.871094 -9.71875 M 5.9375 -2.375 L 11.027344 -2.375 L 11.027344 -3.3125 L 5.9375 -3.3125 L 5.9375 -2.375 M 11.027344 -4.953125 L 5.9375 -4.953125 L 5.9375 -4.03125 L 11.027344 -4.03125 Z "/>
</g>
</g>
</defs>
<g fill="rgb(61.176471%, 86.27451%, 92.156863%)" fill-opacity="1">
<use xlink:href="#glyph-0-0" x="30" y="34.107422"/>
<use xlink:href="#glyph-0-1" x="43" y="34.107422"/>
<use xlink:href="#glyph-0-2" x="56" y="34.107422"/>
</g>
</svg>
